<svg width="1279" height="653" viewBox="0 0 1279 653" fill="none" xmlns="http://www.w3.org/2000/svg">
<path d="M94.4965 209.5C111.763 260.833 131.363 317.3 153.296 378.9C175.23 440.033 195.296 493 213.496 537.8C227.03 494.4 245.696 442.367 269.496 381.7C293.296 320.567 315.463 265.5 335.996 216.5C342.063 202.033 352.33 194.8 366.796 194.8C380.33 194.8 390.596 197.6 397.597 203.2C404.597 208.333 408.097 217.433 408.097 230.5C408.097 235.633 407.397 240.067 405.996 243.8C404.597 247.533 402.497 252.433 399.696 258.5C385.23 286.967 370.763 319.867 356.297 357.2C341.83 394.067 324.096 440.967 303.097 497.9C304.03 495.567 297.497 513.067 283.497 550.4L260.396 610.6C257.596 618.067 252.93 623.9 246.397 628.1C240.33 631.833 233.33 633.7 225.397 633.7C217.463 633.7 208.596 631.833 198.796 628.1C189.463 623.9 182.696 619.7 178.496 615.5C162.63 585.167 142.33 541.3 117.596 483.9C93.3298 426.5 72.3298 373.533 54.5965 325L44.0965 296.3C37.0965 276.7 31.9632 261.767 28.6965 251.5C25.4298 240.767 23.7965 232.133 23.7965 225.6C23.7965 216.267 28.9298 208.8 39.1965 203.2C49.9298 197.6 60.1965 194.8 69.9965 194.8C75.1298 194.8 80.0298 195.967 84.6965 198.3C89.3632 200.633 92.6298 204.367 94.4965 209.5Z" fill="white"/>
<path d="M568.503 443.5C551.237 392.167 531.637 335.7 509.703 274.1C487.77 212.967 467.704 160 449.504 115.2C435.97 158.6 417.303 210.633 393.504 271.3C369.704 332.433 347.537 387.5 327.004 436.5C320.937 450.967 310.67 458.2 296.204 458.2C282.67 458.2 272.404 455.4 265.403 449.8C258.404 444.667 254.904 435.567 254.904 422.5C254.904 417.367 255.604 412.933 257.004 409.2C258.404 405.467 260.504 400.567 263.304 394.5C277.77 366.033 292.237 333.133 306.704 295.8C321.17 258.933 338.904 212.033 359.904 155.1C358.97 157.433 365.503 139.933 379.503 102.6L402.604 42.4001C405.404 34.9334 410.07 29.1001 416.603 24.9001C422.67 21.1667 429.67 19.3001 437.603 19.3001C445.537 19.3001 454.404 21.1667 464.204 24.9001C473.537 29.1001 480.304 33.3001 484.503 37.5001C500.37 67.8334 520.67 111.7 545.403 169.1C569.67 226.5 590.67 279.467 608.403 328L618.903 356.7C625.903 376.3 631.037 391.233 634.303 401.5C637.57 412.233 639.203 420.867 639.203 427.4C639.203 436.733 634.07 444.2 623.803 449.8C613.07 455.4 602.803 458.2 593.003 458.2C587.87 458.2 582.97 457.033 578.303 454.7C573.637 452.367 570.37 448.633 568.503 443.5Z" fill="white"/>
<path d="M874.003 443.5C856.737 392.167 837.137 335.7 815.203 274.1C793.27 212.967 773.204 160 755.004 115.2C741.47 158.6 722.803 210.633 699.004 271.3C675.204 332.433 653.037 387.5 632.504 436.5C626.437 450.967 616.17 458.2 601.704 458.2C588.17 458.2 577.904 455.4 570.903 449.8C563.904 444.667 560.404 435.567 560.404 422.5C560.404 417.367 561.104 412.933 562.504 409.2C563.904 405.467 566.004 400.567 568.804 394.5C583.27 366.033 597.737 333.133 612.204 295.8C626.67 258.933 644.404 212.033 665.404 155.1C664.47 157.433 671.003 139.933 685.003 102.6L708.104 42.4001C710.904 34.9334 715.57 29.1001 722.103 24.9001C728.17 21.1667 735.17 19.3001 743.103 19.3001C751.037 19.3001 759.904 21.1667 769.704 24.9001C779.037 29.1001 785.804 33.3001 790.003 37.5001C805.87 67.8334 826.17 111.7 850.903 169.1C875.17 226.5 896.17 279.467 913.903 328L924.403 356.7C931.403 376.3 936.537 391.233 939.803 401.5C943.07 412.233 944.703 420.867 944.703 427.4C944.703 436.733 939.57 444.2 929.303 449.8C918.57 455.4 908.303 458.2 898.503 458.2C893.37 458.2 888.47 457.033 883.803 454.7C879.137 452.367 875.87 448.633 874.003 443.5Z" fill="white"/>
<path d="M1185 443.5C1167.74 392.167 1148.14 335.7 1126.2 274.1C1104.27 212.967 1084.2 160 1066 115.2C1052.47 158.6 1033.8 210.633 1010 271.3C986.204 332.433 964.037 387.5 943.504 436.5C937.437 450.967 927.17 458.2 912.704 458.2C899.17 458.2 888.904 455.4 881.903 449.8C874.904 444.667 871.404 435.567 871.404 422.5C871.404 417.367 872.104 412.933 873.504 409.2C874.904 405.467 877.004 400.567 879.804 394.5C894.27 366.033 908.737 333.133 923.204 295.8C937.67 258.933 955.404 212.033 976.404 155.1C975.47 157.433 982.003 139.933 996.003 102.6L1019.1 42.4001C1021.9 34.9334 1026.57 29.1001 1033.1 24.9001C1039.17 21.1667 1046.17 19.3001 1054.1 19.3001C1062.04 19.3001 1070.9 21.1667 1080.7 24.9001C1090.04 29.1001 1096.8 33.3001 1101 37.5001C1116.87 67.8334 1137.17 111.7 1161.9 169.1C1186.17 226.5 1207.17 279.467 1224.9 328L1235.4 356.7C1242.4 376.3 1247.54 391.233 1250.8 401.5C1254.07 412.233 1255.7 420.867 1255.7 427.4C1255.7 436.733 1250.57 444.2 1240.3 449.8C1229.57 455.4 1219.3 458.2 1209.5 458.2C1204.37 458.2 1199.47 457.033 1194.8 454.7C1190.14 452.367 1186.87 448.633 1185 443.5Z" fill="white"/>
<path d="M641.963 414C640.5 447 622.487 462 598.463 462C574.439 462 560 446.5 560 418.5C551 390.5 574.476 368 598.5 368C622.524 368 643.426 381 641.963 414Z" fill="white"/>
</svg>
